<?xml version="1.0" encoding="utf-8"?>
<!-- Generator: Adobe Illustrator 22.0.1, SVG Export Plug-In . SVG Version: 6.00 Build 0)  -->
<svg version="1.1" id="Layer_1" xmlns="http://www.w3.org/2000/svg" xmlns:xlink="http://www.w3.org/1999/xlink" x="0px" y="0px"
	 viewBox="0 0 1400 980" style="enable-background:new 0 0 1400 980;" xml:space="preserve">
<style type="text/css">
	.st0{fill:#FFFFFF;}
	.st1{fill:#79E0D8;}
	.st2{fill:none;}
	.st3{fill:#23B782;}
	.st4{fill:#4ABA8F;}
	.st5{fill:#3FC89A;}
	.st6{fill:#FED309;}
	.st7{clip-path:url(#SVGID_2_);fill:#FFFFFF;}
	.st8{clip-path:url(#SVGID_4_);fill:#FFFFFF;}
	.st9{clip-path:url(#SVGID_6_);fill:#FFFFFF;}
	.st10{fill:#FBAA97;}
	.st11{fill:#FEFBF6;}
	.st12{fill:#215932;}
	.st13{fill:#FED406;}
	.st14{fill:#74E2C7;}
	.st15{fill:#FEE739;}
	.st16{fill:#EACF32;}
	.st17{fill:#386072;}
	.st18{fill:#214254;}
	.st19{fill:#84D3D3;}
	.st20{fill:#458F9B;}
	.st21{fill:#215060;}
	.st22{fill:#FFA255;}
	.st23{fill:#CA413B;}
	.st24{fill:#F46C4D;}
	.st25{fill:#151C28;}
	.st26{fill:#A0E8E6;}
	.st27{clip-path:url(#SVGID_8_);fill:#A0E8E6;}
	.st28{clip-path:url(#SVGID_10_);fill:#A0E8E6;}
</style>
<g>
	<rect x="0" class="st1" width="1400" height="980"/>
	<g>
		<path class="st2" d="M640.7,427.7c-0.6-0.2-1.2-0.4-1.7-0.7C639.5,427.3,640.1,427.5,640.7,427.7z"/>
		<path class="st2" d="M648.5,430.8c-0.6-0.2-1.1-0.5-1.7-0.7C647.4,430.4,648,430.6,648.5,430.8z"/>
		<path class="st2" d="M644.6,429.3c-0.6-0.2-1.1-0.5-1.7-0.7C643.5,428.8,644,429,644.6,429.3z"/>
		<path class="st2" d="M656.3,434.1c-0.5-0.2-1.1-0.4-1.6-0.7C655.3,433.6,655.8,433.8,656.3,434.1z"/>
		<path class="st2" d="M652.4,432.4c-0.6-0.2-1.1-0.5-1.7-0.7C651.3,432,651.9,432.2,652.4,432.4z"/>
		<path class="st2" d="M660.2,435.7c-0.5-0.2-1-0.4-1.5-0.6C659.2,435.3,659.7,435.5,660.2,435.7z"/>
		<path class="st2" d="M667.9,439c-0.3-0.1-0.7-0.3-1-0.4C667.2,438.7,667.6,438.9,667.9,439z"/>
		<path class="st2" d="M664.1,437.3c-0.4-0.2-0.9-0.4-1.3-0.6C663.2,437,663.6,437.2,664.1,437.3z"/>
		<path class="st2" d="M620.3,420.6c-0.4-0.1-0.9-0.3-1.3-0.4C619.4,420.3,619.8,420.4,620.3,420.6z"/>
		<path class="st2" d="M614.9,418.9c-11.6-3.3-23.2-5.8-34.9-7.4C592.2,413.3,603.9,415.7,614.9,418.9z"/>
		<path class="st2" d="M624.6,421.9c-0.5-0.2-1.1-0.4-1.6-0.5C623.5,421.6,624,421.8,624.6,421.9z"/>
		<path class="st2" d="M636.7,426.2c-0.6-0.2-1.2-0.4-1.7-0.7C635.5,425.8,636.1,426,636.7,426.2z"/>
		<path class="st2" d="M632.7,424.7c-0.6-0.2-1.2-0.4-1.7-0.6C631.6,424.3,632.1,424.5,632.7,424.7z"/>
		<path class="st2" d="M628.7,423.3c-0.6-0.2-1.1-0.4-1.7-0.6C627.6,422.9,628.1,423.1,628.7,423.3z"/>
		<path class="st3" d="M183.4,500.5c101.5-57.3,273.8-107.2,396.7-89c11.6,1.6,23.3,4.1,34.9,7.4c1.4,0.4,2.7,0.8,4,1.2
			c0.4,0.1,0.9,0.3,1.3,0.4c0.9,0.3,1.8,0.6,2.7,0.9c0.5,0.2,1.1,0.3,1.6,0.5c0.8,0.3,1.6,0.5,2.4,0.8c0.6,0.2,1.1,0.4,1.7,0.6
			c0.8,0.3,1.5,0.5,2.3,0.8c0.6,0.2,1.2,0.4,1.7,0.6c0.7,0.3,1.5,0.5,2.2,0.8c0.6,0.2,1.2,0.4,1.7,0.7c0.7,0.3,1.5,0.6,2.2,0.8
			c0.6,0.2,1.2,0.4,1.7,0.7c0.7,0.3,1.5,0.6,2.2,0.9c0.6,0.2,1.2,0.5,1.7,0.7c0.7,0.3,1.5,0.6,2.2,0.9c0.6,0.2,1.1,0.5,1.7,0.7
			c0.8,0.3,1.5,0.6,2.2,0.9c0.6,0.2,1.1,0.5,1.7,0.7c0.8,0.3,1.5,0.6,2.3,1c0.5,0.2,1.1,0.4,1.6,0.7c0.8,0.3,1.6,0.7,2.4,1
			c0.5,0.2,1,0.4,1.5,0.6c0.9,0.4,1.7,0.7,2.5,1.1c0.4,0.2,0.9,0.4,1.3,0.6c0.9,0.4,1.9,0.8,2.8,1.2c0.3,0.1,0.7,0.3,1,0.4
			c2.8,1.2,5.5,2.4,8.3,3.6c8.6-8.8,18.3-17.3,28.6-25.4c-29.8-18.1-61.2-33.7-93.7-46.4c-52.4-20.5-107.4-33.6-162.8-43.6
			c-60.1-10.9-121.6-18.1-182.3-11.1c-90.7,10.5-176.1,52.4-266,64.4v290.7C57.3,586.1,96.4,549.6,183.4,500.5z"/>
		<path class="st4" d="M1089.8,274.9c-78.2,1.6-154.5,24.6-226.9,54c-28.9,11.7-57.4,24.6-84.5,40c-23.5,13.4-50.1,29.8-73.6,48.2
			c-10.3,8.1-20.1,16.6-28.6,25.4c22.3,9.7,44.7,19.2,68.3,24.6c12.3,2.8,24.7,4.4,37.2,5.2c33.3,2.2,67.2-1.1,100.8-3
			c108.4-6.2,219.7,4,319.1,47.5c82.2,36,155.7,96.9,198.5,175V399.5C1318.3,319.6,1204.3,272.6,1089.8,274.9z"/>
		<path class="st5" d="M1201.5,516.9c-99.4-43.5-210.7-53.7-319.1-47.5c-33.5,1.9-67.4,5.3-100.8,3c-12.5-0.8-24.9-2.5-37.2-5.2
			c-23.7-5.4-46-14.9-68.3-24.6c-2.8-1.2-5.5-2.4-8.3-3.6c-0.3-0.1-0.7-0.3-1-0.4c-0.9-0.4-1.9-0.8-2.8-1.2
			c-0.4-0.2-0.9-0.4-1.3-0.6c-0.8-0.4-1.7-0.7-2.5-1.1c-0.5-0.2-1-0.4-1.5-0.6c-0.8-0.3-1.6-0.7-2.4-1c-0.5-0.2-1.1-0.4-1.6-0.7
			c-0.8-0.3-1.5-0.6-2.3-1c-0.6-0.2-1.1-0.5-1.7-0.7c-0.7-0.3-1.5-0.6-2.2-0.9c-0.6-0.2-1.1-0.5-1.7-0.7c-0.7-0.3-1.5-0.6-2.2-0.9
			c-0.6-0.2-1.1-0.5-1.7-0.7c-0.7-0.3-1.5-0.6-2.2-0.9c-0.6-0.2-1.2-0.4-1.7-0.7c-0.7-0.3-1.5-0.6-2.2-0.8c-0.6-0.2-1.2-0.4-1.7-0.7
			c-0.7-0.3-1.5-0.5-2.2-0.8c-0.6-0.2-1.2-0.4-1.7-0.6c-0.8-0.3-1.5-0.5-2.3-0.8c-0.6-0.2-1.1-0.4-1.7-0.6c-0.8-0.3-1.6-0.5-2.4-0.8
			c-0.5-0.2-1.1-0.4-1.6-0.5c-0.9-0.3-1.8-0.6-2.7-0.9c-0.4-0.1-0.9-0.3-1.3-0.4c-1.3-0.4-2.7-0.8-4-1.2
			c-11.1-3.2-22.7-5.6-34.9-7.4c-122.9-18.2-295.2,31.7-396.7,89C96.4,549.6,57.3,586.1,0,671.3v57.5V980h1400V787.4v-95.5
			C1357.2,613.8,1283.7,552.9,1201.5,516.9z"/>
	</g>
	<circle class="st6" cx="443.5" cy="110.5" r="79.5"/>
	<g>
		<defs>
			<rect id="SVGID_1_" x="0" width="1400" height="980"/>
		</defs>
		<clipPath id="SVGID_2_">
			<use xlink:href="#SVGID_1_"  style="overflow:visible;"/>
		</clipPath>
		<path class="st7" d="M425.5,144c-2,0-4,0.2-6,0.5c-5.6-23.8-27-41.5-52.5-41.5c-5.9,0-11.5,0.9-16.8,2.7
			C334.2,83.5,308,69,278.5,69c-6.6,0-13,0.7-19.2,2.1C240.8,42.7,208.9,24,172.5,24c-0.5,0-1.1,0-1.6,0C149.3-9.7,111.5-32,68.5-32
			C3.3-32-49.9,19.3-52.9,83.8C-81,99-99,122.5-99,149c0,45.8,54.2,83,121,83c33.3,0,63.4-9.2,85.3-24.1
			c17.8,14.5,40.5,23.1,65.2,23.1c15.9,0,30.9-3.6,44.4-10c15.9,15.5,37.7,25,61.6,25c29.9,0,56.3-14.8,72.3-37.5
			c5.1,1.6,10.5,2.5,16.2,2.5c12.6,0,24.1-4.3,33.3-11.5c6.1,7,15.2,11.5,25.2,11.5c18.5,0,33.5-15,33.5-33.5S444,144,425.5,144z"/>
	</g>
	<g>
		<defs>
			<rect id="SVGID_3_" x="0" width="1400" height="980"/>
		</defs>
		<clipPath id="SVGID_4_">
			<use xlink:href="#SVGID_3_"  style="overflow:visible;"/>
		</clipPath>
		<path class="st8" d="M858-27c-3.4,0-6.7,0.4-9.9,1c-7.7-11.7-19.5-20.6-33.3-24.6c-11.2-43.9-51-76.4-98.4-76.4
			c-46.6,0-85.8,31.3-97.8,74.1C587.1-51.2,562-25,562,7c0,33.1,26.9,60,60,60c12.8,0,24.6-4,34.3-10.8C673.1,68.6,694,76,716.5,76
			c19.9,0,38.4-5.7,54.1-15.6c8.2,4.2,17.5,6.6,27.4,6.6c11.8,0,22.7-3.4,32-9.3c7.8,5.8,17.5,9.3,28,9.3c26,0,47-21,47-47
			S884-27,858-27z"/>
	</g>
	<g>
		<defs>
			<rect id="SVGID_5_" x="0" width="1400" height="980"/>
		</defs>
		<clipPath id="SVGID_6_">
			<use xlink:href="#SVGID_5_"  style="overflow:visible;"/>
		</clipPath>
		<path class="st9" d="M1522.9,64c0.1-1.1,0.1-2.3,0.1-3.4c0-25.5-20.7-46.7-47.9-50.7C1454.5-45.8,1396-86,1327-86
			c-62.8,0-116.9,33.3-141.7,81.3c-34,5-62.8,23.7-79.1,49.6c-4.3-0.6-8.7-0.9-13.2-0.9c-35.3,0-65.5,19.7-77.7,47.4
			c-1.8-0.2-3.7-0.2-5.5-0.2c-31.6,0-57.3,23-57.3,51.4s25.6,51.4,57.3,51.4c14.2,0,27.3-4.7,37.3-12.4c13.2,7.8,29,12.4,46,12.4
			c19.1,0,36.7-5.8,50.8-15.5c17.2,9.8,37.6,15.5,59.5,15.5c20.5,0,39.8-5,56.3-13.7c20.4,8.8,43.2,13.7,67.4,13.7
			c29.9,0,57.8-7.5,81.5-20.6c15,12.8,35.2,20.6,57.5,20.6c46.2,0,83.6-33.6,83.6-75C1549.6,97.3,1539.3,77.7,1522.9,64z"/>
	</g>
	<g>
		<path class="st10" d="M95.4,768.9c34.9-60.5-42.1-60.5-7.2,0c-34.9-60.5-73.4,6.2-3.6,6.2c-69.8,0-31.3,66.7,3.6,6.2
			c-34.9,60.5,42.1,60.5,7.2,0c34.9,60.5,73.4-6.2,3.6-6.2C168.9,775.1,130.4,708.4,95.4,768.9z"/>
		<circle class="st0" cx="92" cy="775.3" r="5.1"/>
	</g>
	<g>
		<path class="st10" d="M188.4,825.7c49.2-13.2,9.5-52.9-3.7-3.7c13.2-49.2-41-34.7-5,1.3c-36-36-50.5,18.2-1.3,5
			c-49.2,13.2-9.5,52.9,3.7,3.7c-13.2,49.2,41,34.7,5-1.3C223.1,866.8,237.6,812.5,188.4,825.7z"/>
		<circle class="st0" cx="183.4" cy="827.2" r="3.7"/>
	</g>
	<g>
		<path class="st10" d="M1301.6,843.5c49.2-13.2,9.5-52.9-3.7-3.7c13.2-49.2-41-34.7-5,1.3c-36-36-50.5,18.2-1.3,5
			c-49.2,13.2-9.5,52.9,3.7,3.7c-13.2,49.2,41,34.7,5-1.3C1336.3,884.5,1350.8,830.3,1301.6,843.5z"/>
		<circle class="st0" cx="1296.6" cy="845" r="3.7"/>
	</g>
	<g>
		<path class="st10" d="M250.1,749.2c16.1-39-24.1-39-8,0c-16.1-39-44.6-10.5-5.6,5.6c-39-16.1-39,24.1,0,8
			c-39,16.1-10.5,44.6,5.6,5.6c-16.1,39,24.1,39,8,0c16.1,39,44.6,10.5,5.6-5.6c39,16.1,39-24.1,0-8
			C294.7,738.7,266.3,710.3,250.1,749.2z"/>
		<circle class="st0" cx="246.2" cy="758.8" r="4.5"/>
	</g>
	<g>
		<path class="st10" d="M317,827.4c42-44.5-12.5-65.3-10.8-4.1c-1.7-61.2-55-37.3-10.5,4.7c-44.5-42-65.3,12.5-4.1,10.8
			c-61.2,1.7-37.3,55,4.7,10.5c-42,44.5,12.5,65.3,10.8,4.1c1.7,61.2,55,37.3,10.5-4.7c44.5,42,65.3-12.5,4.1-10.8
			C382.9,836.2,359,782.9,317,827.4z"/>
		<circle class="st0" cx="306.7" cy="838.3" r="6.5"/>
	</g>
	<g>
		<path class="st11" d="M412.5,568c0,0-14.4-1.1-22.6,7.1c-5.5,5.5-6.8,13.9-7.1,18.8c-0.2-4.9-1.5-13.2-7.1-18.8
			c-8.2-8.2-22.6-7.1-22.6-7.1s-1.1,14.4,7.1,22.6c8.2,8.2,22.6,7.1,22.6,7.1s14.4,1.1,22.6-7.1C413.6,582.4,412.5,568,412.5,568z"
			/>
		<g>
			<path class="st12" d="M383,609c-1.1,0-2-0.9-2-2v-50c0-1.1,0.9-2,2-2s2,0.9,2,2v50C385,608.1,384.1,609,383,609z"/>
		</g>
		<g>
			<circle class="st10" cx="383" cy="525" r="32"/>
			<circle class="st13" cx="383" cy="525" r="10"/>
			<circle class="st0" cx="382.8" cy="524.8" r="4.6"/>
		</g>
	</g>
	<g>
		<path class="st14" d="M1117.6,876.5c0,0-14.4-1.1-22.6,7.1c-5.5,5.5-6.8,13.9-7.1,18.8c-0.2-4.9-1.5-13.2-7.1-18.8
			c-8.2-8.2-22.6-7.1-22.6-7.1s-1.1,14.4,7.1,22.6c8.2,8.2,22.6,7.1,22.6,7.1s14.4,1.1,22.6-7.1
			C1118.8,891,1117.6,876.5,1117.6,876.5z"/>
		<g>
			<path class="st12" d="M1088.1,917.5c-1.1,0-2-0.9-2-2v-50c0-1.1,0.9-2,2-2s2,0.9,2,2v50C1090.1,916.6,1089.2,917.5,1088.1,917.5z
				"/>
		</g>
		<g>
			<circle class="st11" cx="1088.1" cy="833.5" r="32"/>
			<circle class="st10" cx="1088.1" cy="833.5" r="10"/>
			<circle class="st15" cx="1088.1" cy="833.5" r="10"/>
			<circle class="st12" cx="1088.1" cy="833.3" r="4.6"/>
		</g>
	</g>
	<g>
		<ellipse class="st15" cx="768.5" cy="791.8" rx="88.5" ry="71.8"/>
		<ellipse class="st15" cx="875.8" cy="809" rx="67.3" ry="54.6"/>
		<path class="st16" d="M850.2,758.5c-0.9,0.3-1.8,0.6-2.7,1c6.1,9.7,9.5,20.7,9.5,32.4c0,21.7-11.8,41.1-30.6,54.3
			c6.6,5.8,14.7,10.4,23.8,13.4c15.8-13,25.6-30.8,25.6-50.5C875.8,789.3,866,771.5,850.2,758.5z"/>
	</g>
	<ellipse class="st15" cx="1064.2" cy="602.7" rx="88.5" ry="71.8"/>
	<g>
		<ellipse class="st15" cx="513" cy="598.8" rx="39.6" ry="32.2"/>
		<ellipse class="st15" cx="548.8" cy="610.1" rx="25.8" ry="20.9"/>
		<path class="st16" d="M552.6,598.8c0,11.8-7.9,22.2-19.6,27.8c3.9,2.5,8.7,4,14,4.3c7.2-5.8,11.7-13.9,11.7-22.8
			c0-7.1-2.8-13.6-7.6-18.9c-0.1,0-0.2,0-0.3,0C552,592.3,552.6,595.5,552.6,598.8z"/>
	</g>
	<path class="st5" d="M718.8,765.6c24.1,4.1,48.9,4.2,72.4,10.9c16,4.6,31,12.1,46.7,17.4c39,13.1,81.2,12,122.4,10.7
		c2.1,29.8,4.3,59.7,6.4,89.5c-109.4,7.1-219.5,3.9-328.3-9.7c-10.2-1.3-1.3-109.9,1.9-120.6C651.8,724.3,690,760.7,718.8,765.6z"/>
	<path class="st5" d="M1104.9,595.6c-13.7-8.7-22.7-23.5-36.2-32.5c-14.4-9.5-32.3-11.6-49.6-12.6c-24.4-1.5-48.9-1.6-73.3-0.3
		c-2.6,37-1,74.4,4.6,111c1,6.4,2.2,13,6.3,18c4.1,5,10.5,7.5,16.7,9.5c44.9,14.4,93.1,13.3,140.2,12.1c8.4-0.2,17.4-0.6,24.1-5.6
		c7.2-5.3,10-14.5,12.5-23.1c3.6-12.6,23.4-54.1,12.7-64.9c-5.3-5.3-21.8-1.5-29-2.3C1123.8,603.7,1113.6,601.2,1104.9,595.6z"/>
	<path class="st5" d="M458.7,579.6c-5.6,22.8-8.1,46.4-7.4,69.9c31.1-5.5,62.4,0.6,93.3,3.6c9.7,0.9,38.1,6.8,45.4-0.1
		c5.8-5.5,3.7-21.5,0.1-27.7c-4.6-7.8-13.7-11.3-21.7-14.3c-13.7-5.3-22.2-10.9-34.6-18.8C527.1,587.8,461.6,568,458.7,579.6z"/>
	<g>
		<path class="st10" d="M1248.4,900.9c24.4-21.8-3.7-35.3-5.5-2.7c1.9-32.6-27.6-22.4-5.8,2c-21.8-24.4-35.3,3.7-2.7,5.5
			c-32.6-1.9-22.4,27.6,2,5.8c-24.4,21.8,3.7,35.3,5.5,2.7c-1.9,32.6,27.6,22.4,5.8-2c21.8,24.4,35.3-3.7,2.7-5.5
			C1283.1,908.6,1272.8,879.1,1248.4,900.9z"/>
		<circle class="st0" cx="1242.4" cy="906.3" r="3.5"/>
	</g>
	<g>
		<g>
			<path class="st14" d="M592.8,795.5c-0.3-0.1-0.7-0.1-1-0.2c-0.6,0-1.1,0.3-1.5,0.8c-0.6,0.5-1,1.1-1.2,1.8
				c-0.4,0.9-0.6,1.8-0.7,2.8c-0.2,1.1-0.3,2.2-0.3,3.3c0.1,2,0.3,4.3,1.3,6.1c0.3,0.4,0.5,0.9,0.8,1.3c0.5,0.7,1.2,1.1,2,1.1
				c0.3-0.1,0.7-0.1,1-0.2c0.6,0,1.1-0.3,1.5-0.8c0.6-0.5,1-1.1,1.2-1.8c0.4-0.9,0.6-1.8,0.7-2.8c0.2-1.1,0.3-2.2,0.2-3.3
				c-0.1-2-0.3-4.2-1.3-6c-0.3-0.4-0.5-0.9-0.8-1.3C594.3,795.9,593.6,795.6,592.8,795.5L592.8,795.5z"/>
		</g>
		<g>
			<path class="st14" d="M549.6,716c0,0.1,0,0.3-0.1,0.4c0.3-0.6,0.4-1.4,0.5-2.1c0.1-1,0-2-0.2-3c-0.1-0.7-0.3-1.3-0.7-1.8
				c-0.2-0.4-0.7-1-1.2-1c-1,0.1-1.5,1.5-1.7,2.3c-0.2,1-0.2,2-0.2,3c0.1,0.9,0.2,1.8,0.6,2.6c0.2,0.3,0.4,0.6,0.5,0.9
				c-0.3-0.8-0.6-1.6-0.9-2.4c0,0.1,0,0.1,0,0.2c0.2,0.9,0.4,2.5,1.5,2.9C548.9,718.2,549.4,716.7,549.6,716L549.6,716z"/>
		</g>
		<g>
			<path class="st14" d="M537.1,718.9c1.7,0,1.7-5.8-0.1-5.8C535.2,713.1,535.3,718.9,537.1,718.9L537.1,718.9z"/>
		</g>
		<g>
			<path class="st14" d="M582.1,809.4c2.7,0,2.6-8.9-0.2-8.9C579.2,800.6,579.3,809.4,582.1,809.4L582.1,809.4z"/>
		</g>
		<g>
			<path class="st14" d="M570.1,809.7c2.9,0,2.8-9.5-0.2-9.5C567,800.3,567.1,809.7,570.1,809.7L570.1,809.7z"/>
		</g>
		<g>
			<path class="st14" d="M690.3,760.5c3.9,0,3.7-27.1-0.7-27.1C685.7,733.5,685.9,760.5,690.3,760.5L690.3,760.5z"/>
		</g>
		<g>
			<path class="st14" d="M699.3,768c3.5,0,3.3-24-0.6-24C695.2,744,695.4,768,699.3,768L699.3,768z"/>
		</g>
		<g>
			<path class="st14" d="M938.3,806.6c3.4,0,3.2-23.1-0.6-23.1C934.3,783.4,934.5,806.6,938.3,806.6L938.3,806.6z"/>
		</g>
		<g>
			<path class="st14" d="M925.6,785.7c-0.3,0.2-0.7,0.4-1,0.7c-0.6,0.2-0.9,0.6-1.1,1.2c-0.5,0.9-0.8,1.8-0.9,2.9
				c-0.5,2.6-0.6,5.2-0.6,7.9c0,2.9,0.1,5.9,0.6,8.7c0.2,0.9,0.3,1.8,0.5,2.8c0.2,1.3,0.7,2.4,1.4,3.5c0.3,0.2,0.7,0.4,1,0.6
				c0.5,0.7,1.1,0.7,1.6,0c0.2-0.5,0.5-1,0.7-1.5c0.5-1.7,0.8-3.4,1-5.2c0.2-1.8,0.3-3.6,0.2-5.3c0-3.6-0.2-7.1-0.9-10.6
				c-0.2-1.3-0.5-2.5-0.9-3.7C927,786.6,926.5,786,925.6,785.7L925.6,785.7z"/>
		</g>
		<g>
			<path class="st14" d="M484.6,577.9c0.5,0.2,0.9,0.4,1.5,0.4c0.6,0.1,1.1-0.9,1.3-1.3c0.4-0.9,0.5-2.1,0.5-3.1
				c0-1-0.1-2.1-0.6-3.1c-0.2-0.5-0.7-1.3-1.3-1.2c-0.5,0-1,0.2-1.4,0.4c-0.1,0.1-0.3,0.3-0.4,0.4c-0.2,0.3-0.4,0.7-0.5,1.1
				c-0.2,0.8-0.3,1.6-0.3,2.5c0,0.7,0.1,1.4,0.3,2C483.7,576.6,484.1,577.7,484.6,577.9L484.6,577.9z"/>
		</g>
		<g>
			<path class="st14" d="M492.1,580.4c2.6,0,2.5-8.8-0.2-8.8C489.3,571.6,489.4,580.4,492.1,580.4L492.1,580.4z"/>
		</g>
		<g>
			<path class="st14" d="M1135.3,608.3c3.1,0,3-22.2-0.5-22.2C1131.6,586.1,1131.7,608.3,1135.3,608.3L1135.3,608.3z"/>
		</g>
		<g>
			<path class="st14" d="M1121.6,606.1c0.3,0.2,0.7,0.7,1.1,0.7c0.4,0,0.8-0.5,1.1-0.8c0.2-0.4,0.3-0.8,0.5-1.1
				c0.3-1,0.5-1.9,0.5-2.9c0.3-2.3,0.4-4.6,0.3-6.8c-0.1-1.9-0.2-3.8-0.4-5.7c-0.1-1.1-0.3-2.1-0.6-3.1c-0.1-0.7-0.4-1.4-0.8-2
				c-0.3-0.3-0.7-0.8-1.1-0.8c-0.4,0-0.8,0.5-1.1,0.8c-0.2,0.4-0.3,0.8-0.5,1.2c-0.3,1-0.5,1.9-0.6,2.9c-0.3,2.3-0.4,4.6-0.3,6.9
				c0.1,1.9,0.2,3.8,0.4,5.7c0.1,1.1,0.3,2.1,0.7,3.2C1121,604.8,1121.3,605.5,1121.6,606.1L1121.6,606.1z"/>
		</g>
		<g>
			<path class="st14" d="M1143.2,610.8c2.9,0,2.7-21.2-0.5-21.2C1139.8,589.6,1140,610.8,1143.2,610.8L1143.2,610.8z"/>
		</g>
		<g>
			<path class="st14" d="M1043.1,675.2c3.7,0,3.5-12-0.3-12C1039.2,663.2,1039.3,675.2,1043.1,675.2L1043.1,675.2z"/>
		</g>
		<g>
			<path class="st14" d="M1050,667.4c0,0.3-0.1,0.6-0.1,0.9c-0.1,1.3-0.1,2.5,0.1,3.8c0.1,1.1,0.4,2.1,0.9,3.1
				c0.5,0.9,1.1,2.1,2.3,2c1.1,0,1.8-1.3,2.2-2.1c0.9-2.2,0.9-4.7,0.6-7c0-0.3-0.1-0.6-0.1-0.9c-0.1-1.2-0.5-2.5-1.2-3.6
				c-0.4-0.6-1-1.5-1.9-1.4c-0.7,0.1-1.1,0.5-1.5,1c-0.4,0.6-0.7,1.2-0.8,1.8C1050.2,665.8,1050.1,666.6,1050,667.4L1050,667.4z"/>
		</g>
		<g>
			<path class="st14" d="M1064.1,673.2c2.3,0,2.2-8-0.2-8C1061.5,665.2,1061.6,673.2,1064.1,673.2L1064.1,673.2z"/>
		</g>
		<g>
			<path class="st14" d="M1076.1,667.3c-0.7-0.6-1.2-1.3-2.2-1.3c-0.6,0-1.2,0.5-1.7,0.8c-0.2,0.2-0.4,0.4-0.6,0.6
				c-0.3,0.5-0.5,0.9-0.6,1.5c-0.3,1.1-0.5,2.3-0.4,3.4c0,1,0.2,1.9,0.4,2.8c0.2,0.8,0.7,2.1,1.5,2.6c0.5,0.3,1.1,0.8,1.7,0.7
				c0.7,0,1.2-0.3,1.6-0.8c0.4-0.5,0.8-0.9,1-1.5c0.4-1,0.6-2.2,0.6-3.3c0-1,0-2-0.2-2.9C1077,669.1,1076.7,667.9,1076.1,667.3
				L1076.1,667.3z"/>
		</g>
		<g>
			<path class="st14" d="M909.1,895.4c3.3,0,3.1-10.7-0.3-10.7C905.6,884.6,905.7,895.4,909.1,895.4L909.1,895.4z"/>
		</g>
		<g>
			<path class="st14" d="M920.1,885.8c2.9,0,2.8-9.6-0.2-9.6C917,876.2,917.1,885.8,920.1,885.8L920.1,885.8z"/>
		</g>
		<g>
			<path class="st14" d="M927.1,894.4c2.7,0,2.5-8.7-0.2-8.7C924.2,885.6,924.3,894.4,927.1,894.4L927.1,894.4z"/>
		</g>
		<g>
			<path class="st14" d="M918.5,902.9c0.2,0.1,0.4,0.1,0.6,0.2c0.2,0.1,0.4,0.1,0.6,0.2c0.3-0.1,0.5-0.2,0.8-0.3
				c0.2-0.2,0.4-0.4,0.5-0.5c0.3-0.4,0.5-0.9,0.6-1.3c0.3-1,0.5-2.1,0.4-3.1c0-0.9-0.1-1.7-0.4-2.6c-0.2-0.7-0.7-1.9-1.4-2.3
				c-0.2-0.1-0.3-0.2-0.5-0.2c-0.3-0.1-0.6-0.1-0.9,0.1c-0.2,0.1-0.4,0.1-0.6,0.2c-0.2,0.2-0.3,0.3-0.5,0.5
				c-0.3,0.4-0.5,0.8-0.6,1.3c-0.3,1-0.4,2-0.4,3.1c0,0.9,0.1,1.7,0.4,2.5C917.3,901.1,917.8,902.6,918.5,902.9L918.5,902.9z"/>
		</g>
		<g>
			<path class="st14" d="M560.1,817.9c3.6,0,3.5-11.8-0.3-11.8C556.2,806.1,556.4,817.9,560.1,817.9L560.1,817.9z"/>
		</g>
		<g>
			<path class="st14" d="M1226.1,744.2c-0.2-0.2-0.3-0.4-0.5-0.6c-0.3-0.5-0.7-0.7-1.2-0.8c-0.2,0.1-0.3,0.1-0.5,0.2
				c-0.5,0.1-0.8,0.3-1,0.7c-0.3,0.6-0.6,1.2-0.7,1.8c-0.4,1.6-0.4,3.5,0.1,5.1c0.3,0.8,0.5,1.7,0.9,2.4c0.3,0.6,0.8,1,1.3,1.3
				c0.7,0.4,1.4,0,1.8-0.6c0.5-0.8,0.7-1.8,0.9-2.7c0.2-1.2,0.2-2.4,0-3.6C1227,746.3,1226.7,745.1,1226.1,744.2L1226.1,744.2z"/>
		</g>
		<g>
			<path class="st14" d="M1234.1,745.3c3,0,2.9-10.6-0.3-10.6C1230.9,734.7,1231,745.3,1234.1,745.3L1234.1,745.3z"/>
		</g>
		<g>
			<path class="st14" d="M1244.1,752.5c3.2,0,3.1-11-0.3-11C1240.6,741.5,1240.8,752.5,1244.1,752.5L1244.1,752.5z"/>
		</g>
		<g>
			<path class="st14" d="M69.5,902.8c-0.3,0.4-0.6,0.8-0.9,1.2c-0.7,0.9-1.1,2.3-1.2,3.5c-0.1,1.3,0,2.5,0.2,3.7
				c0.2,0.9,0.5,2,1.2,2.7c0.5,0.5,1.3,1.1,2.1,0.5c0.3-0.2,0.7-0.5,1-0.7c0.9-0.7,1.3-1.8,1.6-2.8c0.5-1.7,0.4-3.6,0-5.4
				c-0.3-1.2-0.6-2.3-1.6-3.2C71.1,901.7,70.1,901.9,69.5,902.8L69.5,902.8z"/>
		</g>
		<g>
			<path class="st14" d="M79.4,894.5c0,0.1,0,0.3,0,0.4c-0.1,1.5-0.1,3.1,0.4,4.6c0.3,1,0.7,2.1,1.7,2.7c0.5,0.3,0.9,0.2,1.4,0
				c0.2-0.2,0.4-0.4,0.6-0.6c0.3-0.5,0.6-1,0.7-1.5c0.4-1.1,0.6-2.4,0.5-3.6c0-0.1,0-0.3,0-0.4c-0.1-1.3-0.2-2.9-0.9-4.1
				c-0.4-0.7-0.8-1.4-1.6-1.6c-0.2-0.1-0.5-0.1-0.7,0c-0.4,0.1-0.8,0.3-1,0.7C79.8,892,79.5,893.3,79.4,894.5L79.4,894.5z"/>
		</g>
		<g>
			<path class="st14" d="M90.2,892.9c-0.3,0.5-0.6,1.1-0.9,1.6c-0.7,1.2-0.9,2.7-1.1,4.1c-0.2,1.9-0.2,3.8-0.1,5.6
				c0.1,1.7,0.2,3.4,0.7,5.1c0.1,0.5,0.3,0.9,0.4,1.4c0.1,0.6,0.5,1,1,1.2c0.3-0.1,0.7-0.2,1-0.4c1-0.4,1.2-1.9,1.4-2.8
				c0.6-2.6,0.5-5.4,0.4-8c-0.1-2.1-0.3-4.2-0.9-6.2C92,894,91,891.5,90.2,892.9L90.2,892.9z"/>
		</g>
		<g>
			<path class="st14" d="M103.2,912.8c0,0,0,0.1,0.1,0.1c0.3,0.6,0.8,1.6,1.5,0.8c0,0,0,0,0-0.1c0.3-0.5,0.5-1,0.6-1.6
				c0.2-0.8,0.4-1.7,0.5-2.5c0.1-1.5,0.2-3,0.2-4.6c0-1.2-0.1-2.3-0.3-3.5c-0.1-1-0.3-1.9-0.5-2.9c-0.2-0.8-0.4-2-1.2-2.5
				c-0.2-0.2-0.4-0.2-0.5,0c-0.4,0.2-0.7,0.6-0.7,1.1c-0.5,1.4-0.6,2.9-0.7,4.3c-0.1,2-0.1,3.9,0,5.9c0.1,0.7,0.2,1.4,0.3,2.2
				C102.5,910.7,102.8,911.8,103.2,912.8L103.2,912.8z"/>
		</g>
		<g>
			<path class="st14" d="M52.8,900.4c-0.1,2.4,0,4.9,0.2,7.3c0.1,1.7,0.4,3.5,0.9,5.1c0.1,0.5,0.3,0.9,0.5,1.3
				c0.1,0.4,0.4,0.7,0.9,0.8c0.6-0.1,0.9-0.9,1.1-1.4c0.3-0.8,0.5-1.7,0.6-2.5c0.2-1.1,0.3-2.2,0.3-3.4c0.1-1.5,0.1-3.1,0.1-4.6
				c-0.1-2.3-0.2-4.8-0.8-7.1c-0.3-0.9-0.5-2.2-1.4-2.7c-0.2-0.2-0.4-0.2-0.6,0c-0.5,0.2-0.7,0.6-0.8,1.2
				C53,896.3,52.9,898.4,52.8,900.4L52.8,900.4z"/>
		</g>
		<g>
			<path class="st14" d="M646.8,876c-0.4,0.2-0.9,0.4-1.1,0.7c-0.2,0.2-0.4,0.5-0.5,0.8c-0.9,1.3-1.2,3-1.4,4.6
				c-0.3,2.5-0.3,5.2-0.1,7.7c0.1,0.8,0.2,1.6,0.3,2.4c0.2,1.2,0.5,2.4,1,3.5c0.2,0.3,0.4,0.7,0.6,1c0.5,0.5,0.9,0.5,1.3,0
				c0.2-0.1,0.4-0.2,0.5-0.3c0.2-0.2,0.3-0.4,0.5-0.6c0.8-1.4,1.2-3,1.4-4.7c0.2-2.1,0.3-4.3,0.1-6.4c-0.1-1.9-0.3-3.9-0.8-5.8
				c-0.2-0.5-0.4-1-0.5-1.6C647.8,876.6,647.4,876.2,646.8,876L646.8,876z"/>
		</g>
		<g>
			<path class="st14" d="M657.2,886.9c2.8,0,2.6-15.8-0.4-15.8C654,871.1,654.2,886.9,657.2,886.9L657.2,886.9z"/>
		</g>
		<g>
			<path class="st14" d="M666.2,897.7c3.4,0,3.2-19.4-0.5-19.4C662.4,878.3,662.5,897.7,666.2,897.7L666.2,897.7z"/>
		</g>
		<g>
			<path class="st14" d="M679.1,878.5c-0.1,0.1-0.3,0.2-0.4,0.3c-0.7,0.6-1,1.9-1.2,2.7c-0.5,2.1-0.7,4.2-0.7,6.4
				c0,1.8,0.1,3.6,0.4,5.4c0.1,0.8,0.3,1.6,0.6,2.4c0.2,0.6,0.4,1.1,0.8,1.5c0.2,0.1,0.4,0.2,0.6,0.3c0.6-0.5,1-0.4,1.3,0.5
				c0.1-0.1,0.3-0.3,0.4-0.4c0.4-0.5,0.7-1.1,0.8-1.8c0.3-0.9,0.5-1.8,0.6-2.8c0.3-2.5,0.3-5.2,0.1-7.6c-0.1-0.8-0.2-1.6-0.3-2.4
				c-0.2-1.2-0.5-2.4-1-3.5c-0.2-0.3-0.4-0.7-0.6-1C680,878,679.5,878,679.1,878.5L679.1,878.5z"/>
		</g>
		<g>
			<path class="st14" d="M383.7,777.1c0.2,0.3,0.4,0.6,0.6,0.9c-0.2-0.3-0.4-0.7-0.6-1c0.1,0.2,0.2,0.4,0.3,0.6
				c0.2,0.7,0.6,1.2,1.3,1.4c0.3-0.1,0.6-0.3,1-0.4c0.5-0.1,0.8-0.4,0.9-0.9c0.4-0.6,0.6-1.3,0.7-2c0.4-1.8,0.5-3.7,0.5-5.6
				c0-2.1-0.1-4.2-0.4-6.2c-0.3-1.6-0.6-3.1-1.5-4.5c-0.3-0.5-0.6-0.9-1-1.4c-0.5-0.5-0.9-0.5-1.4,0c-0.1,0.1-0.2,0.2-0.3,0.3
				c0.2-0.1,0.4-0.3,0.6-0.4c-0.2,0.1-0.4,0.2-0.6,0.2c-1,0.4-1.4,1.9-1.6,2.8c-0.4,1.8-0.5,3.7-0.5,5.5c0,2,0.1,4.1,0.4,6.1
				C382.5,774.3,382.8,775.8,383.7,777.1L383.7,777.1z"/>
		</g>
		<g>
			<path class="st14" d="M399.2,787.7c2.6,0,2.5-15.4-0.4-15.4C396.2,772.3,396.3,787.7,399.2,787.7L399.2,787.7z"/>
		</g>
		<g>
			<path class="st14" d="M409.1,775.2c0,0.2,0.1,0.5,0.1,0.7c0.2,1.2,0.5,2.3,0.9,3.4c0.1,0.6,0.4,0.9,0.9,1.1
				c0.3,0.3,0.6,0.2,0.9-0.2c0.5-0.8,0.8-1.6,0.9-2.5c0.1-0.9,0.3-1.8,0.4-2.6c0.2-1.7,0.2-3.4,0.2-5.2c0-1.7-0.2-3.4-0.5-5.2
				c-0.2-1.3-0.5-2.5-0.9-3.6c-0.2-0.7-0.6-1.2-1.2-1.4c-0.6,0.2-1,0.7-1.2,1.4c-0.4,1.2-0.7,2.4-0.8,3.7
				C408.4,768.3,408.6,771.8,409.1,775.2L409.1,775.2z"/>
		</g>
		<g>
			<path class="st5" d="M1120.8,486c0.2,0.7,0.4,1.5,0.7,2.2c0.2,0.5,0.5,1,0.8,1.4c0.3,0.5,0.6,1,0.9,1.4c0.6,0.9,1.2-0.6,1.3-0.8
				c0.4-1.2,0.5-2.5,0.6-3.8c0.1-1.7,0.1-3.5,0-5.2c-0.2-1.6-0.3-3.3-0.9-4.7c-0.3-0.6-0.6-1.3-0.8-1.9c-0.2-0.4-0.4-0.8-0.6-1.2
				c-0.3-0.5-0.5-0.6-1-0.9c-0.2,0.1-0.3,0.2-0.5,0.3c-0.1,0.3-0.3,0.5-0.4,0.8c-0.5,1.2-0.5,2.6-0.6,3.8c-0.1,1.4-0.1,2.8,0,4.1
				C1120.3,482.9,1120.4,484.5,1120.8,486L1120.8,486z"/>
		</g>
		<g>
			<path class="st5" d="M1133.8,498.5c0.1,0.2,0.3,0.5,0.4,0.7c0.2,0.3,0.5,0.4,0.8,0.6c0.3,0.1,0.5,0.3,0.8,0.4
				c0.6,0.3,1.2-2.5,1.2-2.4c0.3-1.5,0.4-3.1,0.4-4.6c0-1.7,0-3.4-0.3-5.1c-0.2-1.2-0.4-2.6-1.1-3.6c-0.3-0.4-0.5-0.8-0.8-1.2
				c-0.3-0.4-0.7-0.5-1.2-0.7c-0.7-0.2-1.2,2.4-1.2,2.4c-0.3,1.5-0.4,3.1-0.4,4.6c0,1.7,0,3.5,0.3,5.1
				C1132.9,496.1,1133.1,497.4,1133.8,498.5L1133.8,498.5z"/>
		</g>
		<g>
			<path class="st5" d="M1152.3,507.6c2.8,0,2.7-18.8-0.5-18.8C1149,488.8,1149.1,507.6,1152.3,507.6L1152.3,507.6z"/>
		</g>
		<g>
			<path class="st5" d="M697.9,462.2c2.4,0,2.2-16.3-0.4-16.3C695.1,445.9,695.3,462.2,697.9,462.2L697.9,462.2z"/>
		</g>
		<g>
			<path class="st5" d="M165.9,515.8c2.4,0,2.3-16.3-0.4-16.3C163.1,499.5,163.3,515.8,165.9,515.8L165.9,515.8z"/>
		</g>
		<g>
			<path class="st5" d="M666.9,449.2c0.2,0.5,0.6,1.1,0.9,1.6c-0.2-0.3-0.4-0.7-0.5-1c0,0.1,0.1,0.2,0.1,0.3
				c-0.3-1.2-0.6-2.5-0.9-3.7c0,0.3,0.1,0.5,0.1,0.8c0.2,1.4,0.5,2.7,1,4.1c0.2,0.8,0.6,1.3,1.2,1.5c0.2,0,0.4-0.1,0.7-0.1
				c0.2-0.1,0.4-0.3,0.6-0.4c0.4-0.6,0.6-1.2,0.7-1.9c0.4-1.8,0.6-3.7,0.7-5.5c0-1.9,0-3.8-0.1-5.6c-0.1-1.2-0.2-2.4-0.5-3.6
				c-0.1-0.9-0.4-1.8-0.7-2.7c-0.2-0.5-0.4-0.9-0.6-1.4c-0.1-0.6-0.4-1.1-0.9-1.3c-0.3-0.3-0.6-0.3-0.9,0.2
				c-0.2,0.2-0.5,0.4-0.7,0.5c-0.2,0.3-0.3,0.7-0.5,1c-0.1,0.5-0.3,1-0.4,1.6c-0.4,1.9-0.4,3.8-0.4,5.7
				C665.6,442.6,665.8,446.1,666.9,449.2L666.9,449.2z"/>
		</g>
		<g>
			<path class="st5" d="M185.4,506.1c0.2,0.5,0.6,1.1,0.9,1.6c-0.2-0.3-0.4-0.7-0.5-1c0,0.1,0.1,0.2,0.1,0.3
				c-0.3-1.2-0.6-2.5-0.9-3.7c0,0.3,0.1,0.5,0.1,0.8c0.2,1.4,0.5,2.7,1,4.1c0.2,0.8,0.6,1.3,1.2,1.5c0.2,0,0.4-0.1,0.7-0.1
				c0.2-0.1,0.4-0.3,0.6-0.4c0.4-0.6,0.6-1.2,0.7-1.9c0.4-1.8,0.6-3.7,0.7-5.5c0-1.9,0-3.8-0.1-5.6c-0.1-1.2-0.2-2.4-0.5-3.6
				c-0.1-0.9-0.4-1.8-0.7-2.7c-0.2-0.5-0.4-0.9-0.6-1.4c-0.1-0.6-0.4-1.1-0.9-1.3c-0.3-0.3-0.6-0.3-0.9,0.2
				c-0.2,0.2-0.5,0.4-0.7,0.5c-0.2,0.3-0.3,0.7-0.5,1c-0.1,0.5-0.3,1-0.4,1.6c-0.4,1.9-0.4,3.8-0.4,5.7
				C184.2,499.4,184.4,502.9,185.4,506.1L185.4,506.1z"/>
		</g>
		<g>
			<path class="st5" d="M678.4,454.9c2.4,0,2.3-16.6-0.4-16.6C675.6,438.2,675.7,454.9,678.4,454.9L678.4,454.9z"/>
		</g>
		<g>
			<path class="st5" d="M943.9,462.1c-0.3-0.1-0.4-0.1-0.7,0c-0.2,0.1-0.5,0.2-0.7,0.3c-0.9,0.4-1.1,2-1.2,2.8
				c-0.4,2.1-0.5,4.5-0.4,6.6c0.1,2.2,0.2,4.4,0.7,6.6c0.2,0.9,0.4,2.3,1.4,2.7c0.3,0.1,0.5,0.2,0.8,0.3c0.3,0.1,0.4,0.1,0.8,0
				c0.4-0.2,0.6-0.4,0.7-0.8c0.3-0.6,0.5-1.3,0.6-2c0.4-2.2,0.5-4.6,0.4-6.8c-0.1-2.3-0.2-4.6-0.7-6.8
				C945.1,464,944.9,462.4,943.9,462.1L943.9,462.1z"/>
		</g>
		<g>
			<path class="st5" d="M882.9,477c2.7,0,2.6-19.5-0.5-19.5C879.6,457.5,879.8,477,882.9,477L882.9,477z"/>
		</g>
		<g>
			<path class="st5" d="M156.2,518.4c2.7,0,2.6-19.5-0.5-19.5C153,498.9,153.2,518.4,156.2,518.4L156.2,518.4z"/>
		</g>
		<g>
			<path class="st5" d="M147,530c2.7,0,2.6-19.5-0.5-19.5C143.8,510.5,143.9,530,147,530L147,530z"/>
		</g>
		<g>
			<path class="st5" d="M864.8,479.4c2.5,0,2.4-18.4-0.5-18.4C861.9,461,862,479.4,864.8,479.4L864.8,479.4z"/>
		</g>
		<g>
			<path class="st5" d="M992.4,482.1c0.7,0.6,1.2,0.7,1.5,0.2c0.1-0.1,0.1-0.2,0.2-0.3c0.5-0.9,0.7-2,0.9-3c0.4-2.4,0.6-4.9,0.6-7.4
				c0-2.2-0.1-4.4-0.4-6.5c-0.2-1.4-0.4-2.9-1-4.2c-0.1-0.4-0.3-0.7-0.7-0.9c-0.2,0.1-0.3,0.3-0.5,0.4c0-0.5-0.1-1-0.1-1.4
				c-0.1,0-0.2,0.1-0.3,0.1c-0.9,0.5-1.1,1.7-1.3,2.6c-0.4,2.1-0.6,4.2-0.6,6.2c0,0.2,0,0.4,0,0.6c0.4-2.5,0.8-4.9,1.2-7.4
				c-0.1,0.2-0.3,0.4-0.4,0.6c-0.3,0.6-0.5,1.2-0.6,1.9c-0.2,1-0.4,1.9-0.4,2.9c-0.2,2.2-0.2,4.4-0.1,6.6c0.1,2,0.2,4,0.7,5.9
				C991,479.5,991.7,482.4,992.4,482.1L992.4,482.1z"/>
		</g>
		<g>
			<path class="st5" d="M474.9,418.6c-2.1,0-1.9-17.9,0.4-17.9C477.4,400.7,477.3,418.6,474.9,418.6L474.9,418.6z"/>
		</g>
		<g>
			<path class="st5" d="M450.7,406.6c0.2-0.1,0.5-0.4,0.8-0.4c0.2,0,0.6,0.2,0.7,0.2c0.7,0.2,0.9,2,0.9,2.4c0.3,1.9,0.3,3.9,0.3,5.7
				c-0.1,1.9-0.1,3.9-0.5,5.7c-0.1,0.7-0.3,2.1-1,2.4c-0.2,0.1-0.6,0.3-0.8,0.2c-0.2,0-0.5-0.3-0.7-0.4c-0.7-0.4-0.8-1.7-0.9-2.3
				c-0.3-1.8-0.3-3.8-0.3-5.6c0.1-1.9,0.1-3.8,0.6-5.6C449.8,408.2,449.9,407.1,450.7,406.6L450.7,406.6z"/>
		</g>
		<g>
			<path class="st5" d="M463.1,403.6c0.5,0.2,1,0.3,1.5,0.5c0.6,0.2,0.8,1.8,0.8,2.2c0.3,1.7,0.3,3.6,0.2,5.3
				c-0.1,1.7-0.1,3.5-0.5,5.3c-0.1,0.6-0.2,1.9-0.9,2.2c-0.5,0.2-1,0.3-1.5,0.5c-0.6,0.2-0.9-2.5-0.9-2.3c-0.3-1.8-0.3-3.8-0.3-5.6
				c0.1-1.9,0.1-3.8,0.5-5.6C462.2,405.6,462.6,403.5,463.1,403.6L463.1,403.6z"/>
		</g>
		<g>
			<path class="st5" d="M502.8,417.6c-2.4,0-2.2-19.9,0.5-19.9C505.6,397.7,505.5,417.6,502.8,417.6L502.8,417.6z"/>
		</g>
		<g>
			<path class="st5" d="M427.8,405.3c0.3-0.2,0.6-0.5,1-0.7c-0.1,0.1-0.3,0.2-0.4,0.3c0.1-0.2,0.3-0.3,0.4-0.5
				c0.3-0.5,0.6-0.5,0.9,0c0.1,0.1,0.1,0.2,0.2,0.3c0.1,0.3,0.3,0.7,0.4,1c0.2,0.9,0.4,1.8,0.4,2.6c0.2,2.1,0.3,4.1,0.2,6.2
				c-0.1,1.7-0.2,3.4-0.4,5.2c-0.1,1-0.3,1.9-0.5,2.9c-0.1,0.6-0.3,1.2-0.6,1.8c-0.1,0.1-0.1,0.2-0.2,0.3c-0.3,0.5-0.6,0.5-0.9,0
				c-0.1-0.2-0.2-0.3-0.3-0.5c0.1,0.1,0.3,0.2,0.4,0.4c-0.3-0.2-0.6-0.5-0.9-0.7c-0.3-0.2-0.5-0.4-0.6-0.8c-0.3-0.6-0.4-1.3-0.5-1.9
				c-0.3-2.1-0.4-4.4-0.3-6.6c0.1-2.2,0.2-4.4,0.6-6.5c0.1-0.5,0.2-1,0.4-1.4C427,406,427.3,405.6,427.8,405.3L427.8,405.3z"/>
		</g>
		<g>
			<path class="st5" d="M536,409.7c0,0.5-0.1,0.9-0.1,1.4c-0.1,1.3-0.2,2.7-0.5,4c-0.2,0.8-0.3,2-0.9,2.5c-0.1,0.2-0.3,0.2-0.4,0
				c-0.2-0.1-0.4-0.3-0.4-0.6c-0.4-1.2-0.5-2.5-0.6-3.8c0-0.4-0.1-0.9-0.1-1.3c-0.3-3.2-0.2-6.5,0.2-9.6c0.1-1.2,0.4-2.3,0.7-3.4
				c0-0.5,0.3-0.9,0.6-1.1c0.2-0.3,0.4-0.2,0.7,0.2c0.4,0.8,0.6,1.6,0.7,2.5C536.3,403.4,536.3,406.6,536,409.7L536,409.7z"/>
		</g>
	</g>
</g>
</svg>
